<?xml version="1.0" encoding="utf-8"?>
<!-- Generator: Adobe Illustrator 19.0.0, SVG Export Plug-In . SVG Version: 6.00 Build 0)  -->
<svg version="1.1" id="Capa_1" xmlns="http://www.w3.org/2000/svg" xmlns:xlink="http://www.w3.org/1999/xlink" x="0px" y="0px"
	 viewBox="0 0 31 26.2" enable-background="new 0 0 31 26.2" xml:space="preserve">
<g id="XMLID_2_">
	<path id="XMLID_10_" fill="#555147" d="M28.4,4.9c-6.3,0-12.5,0-18.8-0.1c-1.3,0-1.5,0.6-1.4,1.6c0,2.5,0,5,0,7.5
		c0,0.6,0.5,1.8-0.6,1.8c-0.9,0-0.5-1.1-0.5-1.7c0-3.6-0.1-7.2,0-10.9c0.1-1.6-0.5-2.1-2-1.9c-1.3,0.1-2.7,0-4.1,0c-0.4,0-1,0-1-0.6
		C0,0.1,0.5,0,0.8,0C3,0,5.1,0,7.2,0c1,0,1.1,0.7,1,1.4c-0.3,2,0.7,2.2,2.3,2.1c5.6-0.1,11.2,0,16.7,0c3.2,0,4.2,1.3,3.6,4.4
		c-0.5,2.6-1.1,5.2-1.6,7.8c-0.4,2.1-1.6,3.1-3.8,3.1c-3.8-0.1-7.7,0-11.5,0c-0.3,0-0.6,0-0.9,0c-0.9-0.1-2.1-0.5-2.1-1.4
		c-0.1-1.3,0.8-0.6,1.3-0.3c0.3,0.1,0.5,0.2,0.8,0.3c4.2,0,8.5,0.1,12.7,0.1c1.2,0,1.9-0.5,2.1-1.6c0.7-2.9,1.3-5.7,1.9-8.6
		C30,6.2,29.9,5.1,28.4,4.9z"/>
	<path id="XMLID_9_" fill="#F5EB22" d="M28.4,4.9c1.5,0.2,1.6,1.2,1.3,2.4c-0.6,2.9-1.2,5.7-1.9,8.6c-0.3,1.1-1,1.6-2.1,1.6
		c-4.2-0.1-8.5-0.1-12.7-0.1c-0.2-1.4,0.5-1.8,1.8-1.8c2.9,0.1,5.9-0.1,8.8,0.1c2,0.1,2.6-0.6,2.9-2.4C27,10.5,27.8,7.7,28.4,4.9z"
		/>
	<path id="XMLID_6_" fill="#5A564F" d="M12.1,23.1c0,1.7-1.4,3.1-3.2,3.1c-1.9,0-3.4-1.4-3.4-3.2c0-1.7,1.7-3.3,3.4-3.2
		C10.7,19.9,12.1,21.4,12.1,23.1z M8.9,21.1c-1.2,0.1-2,0.8-2,2c0,1.1,0.8,1.8,1.9,1.8c1.2,0,2-0.7,2-2C10.7,21.8,10,21.3,8.9,21.1z
		"/>
	<path id="XMLID_3_" fill="#5A564F" d="M25.2,26.2c-1.8,0-3.3-1.3-3.3-3c-0.1-1.7,1.5-3.4,3.2-3.4c1.7,0,3.4,1.6,3.3,3.3
		C28.4,24.8,26.9,26.2,25.2,26.2z M25.2,25c1-0.2,1.8-0.7,1.8-1.9c0-1.3-0.8-1.9-2-1.9c-1.1,0-1.9,0.7-1.9,1.9
		C23.2,24.3,24,24.9,25.2,25z"/>
</g>
</svg>
